<svg width="234" height="234" viewBox="0 0 234 234" xmlns="http://www.w3.org/2000/svg"><title>placeholder</title><defs><linearGradient x1="100%" y1="0%" y2="100%" id="a"><stop stop-color="#E74C3C" offset="0%"/><stop stop-color="#FF6656" offset="100%"/></linearGradient></defs><g fill="none" fill-rule="evenodd"><path fill="#F4F4F4" d="M0 0h234v234H0z"/><g transform="translate(75 87)" fill="url(#a)"><path d="M80.652 53.057c0 2.517-2.05 4.566-4.566 4.566H7.61c-2.517 0-4.566-2.05-4.566-4.566v-38.04c0-2.52 2.05-4.566 4.566-4.566h14.5l.91-1.037c3.447-3.932 6.933-6.368 8.187-6.368H52.49c1.254 0 4.74 2.436 8.186 6.368l.91 1.038h14.5c2.517 0 4.566 2.048 4.566 4.567v38.04zm-4.566-45.65h-3.128V4.694H66.87v2.713h-3.906C61.942 6.24 56.3 0 52.49 0H31.207c-3.81 0-9.453 6.24-10.475 7.407H7.61c-4.202 0-7.61 3.408-7.61 7.61v38.04c0 4.204 3.408 7.61 7.61 7.61h68.476c4.203 0 7.61-3.406 7.61-7.61v-38.04c0-4.202-3.407-7.61-7.61-7.61z"/><path d="M41.823 46.936C33.42 46.936 26.59 40.1 26.59 31.7c0-8.402 6.83-15.236 15.233-15.236 8.398 0 15.232 6.834 15.232 15.237 0 8.4-6.834 15.236-15.232 15.236zm0-33.515c-10.095 0-18.278 8.184-18.278 18.28 0 10.094 8.183 18.28 18.278 18.28 10.092 0 18.276-8.186 18.276-18.28 0-10.096-8.185-18.28-18.277-18.28zM11.814 4.694c5.873 0 6.487 0 6.487-1.65 0-1.648-.738-1.648-6.486-1.648-5.75 0-6.487 0-6.487 1.65 0 1.648.613 1.648 6.487 1.648zM13.61 17.986c-2.523 0-4.565 2.044-4.565 4.566 0 2.52 2.042 4.566 4.565 4.566 2.52 0 4.565-2.045 4.565-4.566 0-2.522-2.045-4.566-4.565-4.566z"/><path d="M41.823 36.267c-2.52 0-4.565-2.05-4.565-4.566 0-2.518 2.046-4.565 4.565-4.565 2.517 0 4.565 2.047 4.565 4.566 0 2.518-2.048 4.567-4.565 4.567zm0-12.176c-4.196 0-7.61 3.415-7.61 7.61s3.414 7.61 7.61 7.61c4.194 0 7.61-3.415 7.61-7.61s-3.416-7.61-7.61-7.61z"/></g></g></svg>